<svg width="24" height="24" viewBox="0 0 24 24" fill="none" xmlns="http://www.w3.org/2000/svg">
<path d="M18 10.5V15.6C18 17.8402 18 18.9603 17.564 19.816C17.1805 20.5686 16.5686 21.1805 15.816 21.564C14.9603 22 13.8402 22 11.6 22H10.4C8.15979 22 7.03968 22 6.18404 21.564C5.43139 21.1805 4.81947 20.5686 4.43597 19.816C4 18.9603 4 17.8402 4 15.6V10.4C4 8.15979 4 7.03968 4.43597 6.18404C4.81947 5.43139 5.43139 4.81947 6.18404 4.43597C7.03968 4 8.15979 4 10.4 4H11.5M18 1V4M18 4V7M18 4H15M18 4H21M8 8H14M8 12H12M8 16H10" stroke="currentColor" stroke-width="1.5" stroke-linecap="round" stroke-linejoin="round"/>
</svg>
