<svg width="24" height="24" viewBox="0 0 24 24" fill="none" xmlns="http://www.w3.org/2000/svg">
<path d="M16.1668 8V8C17.8742 8 18.7279 8 19.4091 8.25638C20.4872 8.66213 21.338 9.51294 21.7437 10.591C22.0001 11.2722 22.0001 12.1259 22.0001 13.8333V15.6C22.0001 17.8402 22.0001 18.9603 21.5641 19.816C21.1807 20.5686 20.5687 21.1805 19.8161 21.564C18.9604 22 17.8403 22 15.6001 22H13.8335C12.126 22 11.2723 22 10.5911 21.7436C9.51306 21.3379 8.66225 20.4871 8.2565 19.409C8.00012 18.7278 8.00012 17.8741 8.00012 16.1667V16.1667M8.40012 16H9.60012C11.8403 16 12.9604 16 13.8161 15.564C14.5687 15.1805 15.1807 14.5686 15.5641 13.816C16.0001 12.9603 16.0001 11.8402 16.0001 9.6V8.4C16.0001 6.15979 16.0001 5.03968 15.5641 4.18404C15.1807 3.43139 14.5687 2.81947 13.8161 2.43597C12.9604 2 11.8403 2 9.60012 2H8.40012C6.15991 2 5.03981 2 4.18416 2.43597C3.43151 2.81947 2.81959 3.43139 2.4361 4.18404C2.00012 5.03968 2.00012 6.15979 2.00012 8.4V9.6C2.00012 11.8402 2.00012 12.9603 2.4361 13.816C2.81959 14.5686 3.43151 15.1805 4.18416 15.564C5.03981 16 6.15991 16 8.40012 16Z" stroke="currentColor" stroke-width="1.5" stroke-linecap="round" stroke-linejoin="round"/>
</svg>
