<svg xmlns="http://www.w3.org/2000/svg" viewBox="0 0 312 466">
  <g fill="#000" fill-rule="nonzero">
    <path d="M93.446 260.238c-8.273 0-15.004-6.742-15.004-15.029 0-8.274 6.731-15.006 15.004-15.006 8.288 0 15.031 6.731 15.031 15.006 0 8.287-6.743 15.029-15.031 15.029zm0-24.035c-4.965 0-9.004 4.04-9.004 9.006 0 4.979 4.039 9.029 9.004 9.029 4.98 0 9.031-4.051 9.031-9.029 0-4.966-4.051-9.006-9.031-9.006z"/>
    <path d="M240.936 432.678H117.43a3.002 3.002 0 01-2.998-3.106l1.373-38.735c.027-.765.041-1.514.041-2.249 0-8.475-1.779-14.34-3.432-16.204-3.903-4.411-8.334-5.314-13.786-5.314-2.267 0-4.723.166-7.323.343-2.631.178-5.353.362-8.288.412-.323.005-.64.008-.953.008-17.112 0-25.431-8.146-25.431-24.901 0-3.975.398-8.014.783-11.92.342-3.476.666-6.76.666-9.615 0-6.164-1.537-7.612-3.041-8.216-.829-.335-1.167-.4-2.072-.578-.334-.064-.714-.14-1.176-.238-7.751-1.575-16.684-4.326-16.684-11.625 0-5.1 4.604-10.174 10.432-16.599 3.938-4.341 8.4-9.261 11.701-14.613 2.5-4.037 3.002-10.168 3.002-18.754 0-1.6-.015-3.252-.031-4.953a599.314 599.314 0 01-.034-5.633c0-19.886 2.232-41.284 18.423-63.023a3 3 0 015.406 1.792v2.073l48.027 7.27a3 3 0 11-.899 5.933l-50.578-7.656a2.994 2.994 0 01-.944-.309c-11.708 18.472-13.436 36.774-13.436 53.921 0 1.911.017 3.771.034 5.577.016 1.721.031 3.392.031 5.009 0 7.9-.301 16.101-3.898 21.908-3.588 5.819-8.249 10.957-12.361 15.49-4.364 4.81-8.875 9.783-8.875 12.567 0 2.117 4.341 4.214 11.909 5.752.452.096.798.164 1.102.224 1.048.204 1.805.353 3.161.899 6.095 2.448 6.8 9.038 6.8 13.782 0 3.15-.338 6.577-.695 10.204-.371 3.762-.754 7.651-.754 11.331 0 11.544 3.434 19.17 20.286 18.894 2.78-.046 5.423-.226 7.98-.398 2.705-.184 5.259-.356 7.729-.356 5.828 0 12.557.872 18.277 7.336 3.093 3.487 4.941 11.033 4.941 20.183 0 .806-.015 1.627-.045 2.464l-1.263 35.627h117.576l5.091-82.666c.98-16.013 4.889-29.179 10.454-35.217 21.289-23.129 33.014-51.257 33.014-79.201 0-15.34-3.535-29.746-10.517-42.89l-94.683 14.336a3.001 3.001 0 01-.898-5.933l93.008-14.082a3 3 0 015.564-1.239c8.975 15.103 13.525 31.86 13.525 49.807 0 29.454-12.288 59.025-34.601 83.266-3.435 3.727-7.819 14.216-8.879 31.521l-5.264 85.482a2.995 2.995 0 01-2.991 2.812zM263.342 453.89H82a3 3 0 110-6h181.341a3 3 0 01.001 6zM157.156 465.996H31.667a3 3 0 110-6h125.489a3 3 0 110 6zM18.824 465.996H3.132a3 3 0 110-6h15.692a3 3 0 110 6zM270.465 465.336h-59.439a3 3 0 110-6h59.439a3 3 0 110 6z"/>
    <path d="M178.801 201.41a2.96 2.96 0 01-.449-.034L80.56 186.573a3 3 0 01-2.551-2.966v-45.221a3.001 3.001 0 013.449-2.966l71.389 10.813 23.266-46.922a3 3 0 015.687 1.333v97.767a2.997 2.997 0 01-2.999 2.999zm-94.792-20.383l91.792 13.895v-81.474l-18.55 37.412a3.002 3.002 0 01-3.137 1.634L84.01 141.876v39.151h-.001z"/>
    <path d="M154.564 152.527c-.149 0-.299-.011-.45-.034L56.321 137.69a3 3 0 01-2.238-4.299l24.239-48.883a3.005 3.005 0 013.136-1.634l97.792 14.802a3 3 0 012.238 4.299l-24.237 48.884a3 3 0 01-2.687 1.668zm-93.28-20.153l91.563 13.86 21.439-43.239-91.563-13.859-21.439 43.238z"/>
    <path d="M178.801 201.41a2.998 2.998 0 01-3-3v-97.767a3 3 0 015.687-1.333l23.266 46.922 71.365-10.813a3 3 0 013.449 2.966v45.221a3 3 0 01-2.551 2.966l-97.768 14.803a2.808 2.808 0 01-.448.035zm3-87.963v81.475l91.768-13.895v-39.152l-70.08 10.618a3.012 3.012 0 01-3.137-1.634l-18.551-37.412z"/>
    <path d="M203.038 152.527a3 3 0 01-2.687-1.667l-24.238-48.884a3 3 0 012.238-4.299l97.768-14.802a3.002 3.002 0 013.137 1.634l24.238 48.883a3 3 0 01-2.238 4.299l-97.768 14.803c-.15.022-.301.033-.45.033zm-19.724-49.533l21.439 43.239 91.539-13.859-21.439-43.238-91.539 13.858z"/>
    <path d="M276.572 88.842c-.149 0-.301-.011-.453-.034l-97.318-14.735-97.342 14.735a3 3 0 11-.899-5.933l97.792-14.803c.299-.045.6-.045.898 0l97.768 14.803a3 3 0 01-.446 5.967z"/>
    <path d="M145.813 89.631a3 3 0 01-3-3V50.309H79.051a3 3 0 110-6h66.762a3 3 0 013 3v39.322a3 3 0 01-3 3z"/>
    <path d="M79.052 50.309a3.002 3.002 0 01-2.077-5.166l11.063-10.605a3 3 0 114.153 4.331L81.128 49.474a2.99 2.99 0 01-2.076.835z"/>
    <path d="M90.113 60.915a2.992 2.992 0 01-2.076-.834L76.974 49.475a3 3 0 114.153-4.331L92.19 55.75a3 3 0 01-2.077 5.165zM175.928 86.196a3 3 0 01-3-3V16.609h-63.763a3 3 0 110-6h66.763a3 3 0 013 3v69.587a3 3 0 01-3 3z"/>
    <path d="M109.165 16.609a3.002 3.002 0 01-2.077-5.166L118.151.838a3 3 0 114.153 4.331l-11.063 10.605a2.984 2.984 0 01-2.076.835z"/>
    <path d="M120.227 27.215a2.992 2.992 0 01-2.076-.834l-11.063-10.605a3 3 0 114.153-4.331l11.063 10.605a3 3 0 01-2.077 5.165zM206.041 89.631a3 3 0 01-3-3V47.309a3 3 0 013-3h66.764a3 3 0 110 6h-63.764v36.322a3 3 0 01-3 3z"/>
    <path d="M272.805 50.309a2.992 2.992 0 01-2.076-.834L259.665 38.87a3 3 0 114.152-4.331l11.064 10.605a3 3 0 01-2.076 5.165z"/>
    <path d="M261.74 60.915a3.001 3.001 0 01-2.076-5.166l11.064-10.606a3 3 0 014.152 4.331L263.816 60.08a2.989 2.989 0 01-2.076.835zM175.928 86.196a3 3 0 01-3-3V13.609a3 3 0 013-3h66.789a3 3 0 110 6h-63.789v66.587a3 3 0 01-3 3z"/>
    <path d="M242.717 16.609a2.988 2.988 0 01-2.073-.832l-11.09-10.605A3 3 0 01233.7.836l11.09 10.605a3 3 0 01-2.073 5.168z"/>
    <path d="M231.627 27.215a2.998 2.998 0 01-2.073-5.168l11.09-10.605a2.998 2.998 0 014.241.095 2.998 2.998 0 01-.095 4.241L233.7 26.383a2.988 2.988 0 01-2.073.832zM198.719 432.678a3 3 0 01-2.985-3.341l9.59-83.752a3.004 3.004 0 013.321-2.64 3 3 0 012.64 3.321l-9.59 83.752a3 3 0 01-2.976 2.66zM46.085 261.002a3.001 3.001 0 01-2.551-4.575c2.491-4.038 2.991-10.171 2.991-18.757 0-1.594-.015-3.241-.031-4.937a595.626 595.626 0 01-.034-5.615c0-19.895 2.233-41.303 18.432-63.055a3 3 0 114.812 3.584c-15.155 20.35-17.244 40.609-17.244 59.471 0 1.905.017 3.759.034 5.559.016 1.715.031 3.38.031 4.992 0 7.897-.3 16.095-3.885 21.907a2.992 2.992 0 01-2.555 1.426zM308.868 231.574a3 3 0 01-2.999-2.966c-.314-27.665-20.408-54.729-20.61-54.999a3.001 3.001 0 01-.603-1.803v-27.773a3 3 0 116 0v26.794c3.554 4.954 20.903 30.513 21.213 57.713a3.001 3.001 0 01-2.966 3.034h-.035z"/>
  </g>
</svg>
