<svg width="24" height="24" viewBox="0 0 24 24" fill="none" xmlns="http://www.w3.org/2000/svg">
<path d="M3 3L5.82578 5.82578M21 21L18.1742 18.1742M18.1742 18.1742C16.6292 19.2482 14.588 20 12 20C5 20 2 14.5 2 12C2 10.4243 3.19179 7.65676 5.82578 5.82578M18.1742 18.1742L14.1213 14.1213M5.82578 5.82578L9.87863 9.87863M9.87863 9.87863C9.33571 10.4215 8.99991 11.1715 8.99991 12C8.99991 13.6569 10.3431 15 11.9999 15C12.8284 15 13.5784 14.6642 14.1213 14.1213M9.87863 9.87863L14.1213 14.1213M20.4197 16C20.5431 15.8341 20.659 15.6671 20.7674 15.5C21.6051 14.2091 22 12.9071 22 12C22 9.5 19 4 12 4C10.903 4 9.90427 4.13507 8.99991 4.3725C8.82995 4.41712 8.66332 4.46536 8.5 4.517" stroke="currentColor" stroke-width="1.5" stroke-linecap="round"/>
</svg>
