<svg width="24" height="24" viewBox="0 0 24 24" fill="none" xmlns="http://www.w3.org/2000/svg">
<path opacity="0.32" d="M5.1268 8.12821C4.19985 9.51262 3.25 11.5317 3.25 14C3.25 18.9625 7.08859 22.75 12 22.75C16.9114 22.75 20.75 18.9625 20.75 14C20.75 9.64306 18.6151 6.46259 16.5273 4.3985C14.9567 2.84575 13.1755 1.83783 11.25 0.811035C11.25 2.3934 13.1182 11.25 10 11.25C7.50784 11.25 8.25 6.63434 8.25 4.88542C7.03689 5.90947 6.04322 6.75953 5.1268 8.12821Z" fill="currentColor"/>
<path d="M3.25 14.2258C3.25 19 7 22.75 12 22.75C17 22.75 20.75 18.9853 20.75 14C20.75 14 20.4375 17.5161 18.1875 17.5161C15.9375 17.5161 15.375 12.0323 15.375 12.0323C15.375 12.0323 14.25 18.6129 10.875 18.6129C5.025 18.6129 5.2825 9.29032 6.97 6C6.97 6 3.25 9 3.25 14.2258Z" fill="currentColor"/>
</svg>
