<svg xmlns="http://www.w3.org/2000/svg" viewBox="0 0 48 76">
  <g transform="translate(.562 .562)" fill="#000" fill-rule="nonzero">
    <path d="M23.438 0C14.651 0 7.5 7.15 7.5 15.938v14.081C3.349 30.122 0 33.54 0 37.748v29.506c0 4.271 3.448 7.747 7.687 7.747h31.502c4.238 0 7.687-3.476 7.687-7.747V37.748c0-4.208-3.349-7.626-7.5-7.729V15.938C39.376 7.151 32.225 0 23.438 0zm0 1.876c7.755 0 14.062 6.308 14.062 14.062V30h-5.625V15.938c0-4.652-3.785-8.438-8.438-8.438-4.653 0-8.438 3.785-8.438 8.438V30H9.374V15.938c.002-7.755 6.309-14.062 14.064-14.062zM16.876 30V15.938a6.57 6.57 0 016.562-6.562A6.57 6.57 0 0130 15.938V30H16.876zM45 37.748v29.506c0 3.237-2.607 5.872-5.812 5.872H7.687c-3.204 0-5.812-2.635-5.812-5.872V37.748c0-3.237 2.607-5.872 5.812-5.872h31.502c3.204 0 5.811 2.634 5.811 5.872z"/>
    <ellipse cx="14.063" cy="54.376" rx="1.875" ry="2.812"/>
    <ellipse cx="32.813" cy="54.376" rx="1.875" ry="2.812"/>
    <path d="M30.938 63.75h-15a.937.937 0 100 1.876h15a.937.937 0 100-1.876z"/>
  </g>
</svg>
