<svg xmlns="http://www.w3.org/2000/svg" viewBox="0 0 48 76">
  <g fill="#000" fill-rule="nonzero">
    <path d="M31.5 62.438h-15a.937.937 0 100 1.876h8.438v2.812a3.754 3.754 0 003.75 3.75 3.754 3.754 0 003.75-3.75v-3.75a.936.936 0 00-.938-.938zM28.688 69a1.878 1.878 0 01-1.875-1.875v-2.812h3.75v2.812A1.878 1.878 0 0128.688 69zM15.837 58.413a.936.936 0 001.326 0 .938.938 0 000-1.326l-1.212-1.212 1.212-1.212a.938.938 0 00-1.326-1.326l-1.212 1.212-1.212-1.212a.938.938 0 00-1.326 1.326l1.212 1.212-1.212 1.212a.938.938 0 001.326 1.326l1.212-1.212 1.212 1.212zM35.913 53.337a.938.938 0 00-1.326 0l-1.212 1.212-1.212-1.212a.938.938 0 00-1.326 1.326l1.212 1.212-1.212 1.212a.938.938 0 001.326 1.326l1.212-1.212 1.212 1.212a.936.936 0 001.326 0 .938.938 0 000-1.326l-1.212-1.212 1.212-1.212a.938.938 0 000-1.326z"/>
    <path d="M16.5 26.812c-1.653 0-2.432-.389-3.331-.839-.972-.485-2.072-1.036-4.169-1.036a.937.937 0 00-.938.938v4.706c-4.151.103-7.5 3.521-7.5 7.729v29.506c0 4.271 3.448 7.747 7.687 7.747h31.502c4.238 0 7.687-3.476 7.687-7.747V38.31c0-4.208-3.349-7.626-7.5-7.729V16.5C39.938 7.713 32.788.562 24 .562S8.062 7.713 8.062 16.5c0 .519.419.938.938.938 1.653 0 2.432.389 3.331.839.972.485 2.072 1.036 4.169 1.036a.937.937 0 00.938-.938V16.5A6.57 6.57 0 0124 9.938a6.57 6.57 0 016.562 6.562v14.062H17.438V27.75a.937.937 0 00-.938-.938zM45.562 38.31v29.506c0 3.237-2.607 5.872-5.812 5.872H8.249c-3.204 0-5.812-2.635-5.812-5.872V38.31c0-3.237 2.607-5.872 5.812-5.872h31.502c3.204 0 5.811 2.634 5.811 5.872zM32.438 16.5c0-4.652-3.785-8.438-8.438-8.438-4.653 0-8.438 3.785-8.438 8.438v.879c-1.04-.119-1.687-.427-2.394-.78-.811-.404-1.71-.854-3.204-.994C10.428 8.266 16.546 2.438 24 2.438c7.755 0 14.062 6.308 14.062 14.062v14.062h-5.625V16.5h.001zm-22.5 14.062v-3.691c1.04.119 1.687.427 2.394.78.809.404 1.745.835 3.231.974v1.938H9.938v-.001z"/>
  </g>
</svg>
