<svg xmlns="http://www.w3.org/2000/svg" viewBox="0 0 48 76">
  <g fill="#000" fill-rule="nonzero">
    <path d="M24 .562C15.213.562 8.062 7.712 8.062 16.5v14.081c-4.151.103-7.5 3.521-7.5 7.729v29.506c0 4.271 3.448 7.747 7.687 7.747h31.502c4.239 0 7.687-3.476 7.687-7.747V38.31c0-4.208-3.349-7.626-7.5-7.729V16.5C39.938 7.713 32.787.562 24 .562zm0 1.876c7.754 0 14.062 6.308 14.062 14.062v14.062h-5.625V16.5c0-4.652-3.785-8.438-8.438-8.438-4.653 0-8.438 3.785-8.438 8.438v14.062H9.936V16.5C9.938 8.745 16.246 2.438 24 2.438zm-6.562 28.124V16.5A6.57 6.57 0 0124 9.938a6.57 6.57 0 016.562 6.562v14.062H17.438zm28.124 7.748v29.506c0 3.237-2.607 5.872-5.812 5.872H8.249c-3.204 0-5.812-2.635-5.812-5.872V38.31c0-3.237 2.607-5.872 5.812-5.872h31.502c3.204 0 5.811 2.634 5.811 5.872z"/>
    <path d="M29.625 60.562a.937.937 0 00-.938.938 4.692 4.692 0 01-4.688 4.688 4.692 4.692 0 01-4.688-4.688.937.937 0 10-1.876 0 6.57 6.57 0 006.562 6.562 6.57 6.57 0 006.562-6.562.932.932 0 00-.934-.938zM16.5 54.938h-3.75a.937.937 0 100 1.876h3.75a.937.937 0 100-1.876zM35.25 54.938H31.5a.937.937 0 100 1.876h3.75a.937.937 0 100-1.876z"/>
  </g>
</svg>
