<svg width="24" height="24" viewBox="0 0 24 24" fill="none" xmlns="http://www.w3.org/2000/svg">
<path d="M14 18C14 22 16 22 16 22M16 22H17M16 22H8M7 22H8M2 13V13.2C2 14.8802 2 15.7202 2.32698 16.362C2.6146 16.9265 3.07354 17.3854 3.63803 17.673C4.27976 18 5.11984 18 6.8 18H10M2 13V6.8C2 5.11984 2 4.27976 2.32698 3.63803C2.6146 3.07354 3.07354 2.6146 3.63803 2.32698C4.27976 2 5.11984 2 6.8 2H17.2C18.8802 2 19.7202 2 20.362 2.32698C20.9265 2.6146 21.3854 3.07354 21.673 3.63803C22 4.27976 22 5.11984 22 6.8V13M2 13H22M22 13V13.2C22 14.8802 22 15.7202 21.673 16.362C21.3854 16.9265 20.9265 17.3854 20.362 17.673C19.7202 18 18.8802 18 17.2 18H10M8 22C8 22 10 21.5 10 18" stroke="currentColor" stroke-width="1.5" stroke-linecap="round" stroke-linejoin="round"/>
</svg>
