<svg width="24" height="24" viewBox="0 0 24 24" fill="none" xmlns="http://www.w3.org/2000/svg">
<path opacity="0.32" d="M7.12463 20.4454C8.55884 21.2751 10.224 21.75 12.0001 21.75C17.2761 21.75 21.5733 17.5595 21.7448 12.3252C20.1713 13.9334 17.9597 15.6214 15.3751 17.1137C12.4549 18.7996 9.55703 19.9479 7.21616 20.4269C7.18559 20.4332 7.15507 20.4393 7.12463 20.4454Z" fill="currentColor"/>
<path fill-rule="evenodd" clip-rule="evenodd" d="M12.0002 2.25C6.61541 2.25 2.25018 6.61523 2.25018 12C2.25018 12.5563 2.29677 13.1017 2.38625 13.6325C1.73051 14.418 1.22666 15.1957 0.938853 15.9287C0.620414 16.7397 0.522531 17.6205 0.958205 18.3752C1.3985 19.1378 2.22252 19.4929 3.09539 19.6193C3.97891 19.7472 5.04975 19.6657 6.21613 19.4271C8.557 18.948 11.4549 17.7997 14.375 16.1138C17.3256 14.4103 19.7899 12.4517 21.3739 10.6479C22.1468 9.76769 22.7392 8.89159 23.0612 8.07153C23.3796 7.26053 23.4775 6.37975 23.0419 5.62515C22.606 4.87031 21.794 4.51469 20.932 4.38506C20.1532 4.26793 19.2276 4.31548 18.2194 4.49074C16.5315 3.09127 14.3641 2.25 12.0002 2.25ZM19.5549 5.83601C20.2114 6.63969 20.7422 7.55006 21.1173 8.53714C21.3625 8.16922 21.5449 7.8292 21.665 7.52332C21.9029 6.91725 21.8536 6.56708 21.7428 6.37515C21.632 6.18316 21.3532 5.96528 20.709 5.86838C20.3834 5.81942 19.997 5.80748 19.5549 5.83601ZM4.44569 18.1643C3.78905 17.3605 3.25815 16.45 2.88299 15.4628C2.63774 15.8308 2.45522 16.171 2.33508 16.477C2.09711 17.083 2.14643 17.4332 2.25724 17.6252C2.36924 17.8191 2.65295 18.0395 3.3104 18.1348C3.63226 18.1814 4.01238 18.1922 4.44569 18.1643Z" fill="currentColor"/>
</svg>
