<svg xmlns="http://www.w3.org/2000/svg" viewBox="0 0 478 478">
  <g fill="#000" fill-rule="nonzero">
    <path d="M471.37 232.37h-28.086c-3.438-107.45-90.203-194.21-197.65-197.65V6.634a6.63 6.63 0 0 0-13.258 0V34.72c-107.45 3.445-194.21 90.203-197.65 197.65H6.64a6.63 6.63 0 0 0 0 13.258h28.086c3.446 107.45 90.203 194.21 197.65 197.65v28.086a6.63 6.63 0 0 0 13.258 0v-28.086a204.394 204.394 0 0 0 161.676-88.43 6.642 6.642 0 0 0 1.184-1.719 203.115 203.115 0 0 0 34.793-107.5h28.086a6.63 6.63 0 0 0 0-13.258l-.003-.001ZM245.63 430.01v-27.836a6.63 6.63 0 0 0-13.258 0v27.836a190.955 190.955 0 0 1-79.96-20.637 190.954 190.954 0 0 1-63.77-52.48h300.72A190.93 190.93 0 0 1 245.63 430.01Zm-53.66-185.49v-42.844h94.062v141.96H191.97V244.52Zm157.13 99.117h-49.766v-92.488H349.1v92.488Zm-170.38 0h-49.766l-.004-92.488h49.766l.004 92.488Zm220.18 0h-36.566V244.52a6.63 6.63 0 0 0-6.629-6.617H299.31V195.05a6.632 6.632 0 0 0-6.629-6.63h-47.03V172.52c2.648-2.82 8.75-7.461 17.194-2.047 16.656 10.707 31.871 1.586 37.594-4.734a6.656 6.656 0 0 0 1.715-4.454V120.27a6.648 6.648 0 0 0-11.504-4.496c-.941 1.016-9.547 9.668-20.629 2.528-17.14-11.023-31.312-.242-36.422 7.011a6.66 6.66 0 0 0-1.203 3.817v59.293h-47.031a6.627 6.627 0 0 0-6.629 6.629v42.852h-56.438a6.63 6.63 0 0 0-6.629 6.629v99.117l-36.543-.004a189.986 189.986 0 0 1-31.137-98.008h27.836a6.63 6.63 0 0 0 0-13.258H47.99c3.434-100.13 84.22-180.96 184.38-184.38v27.836A6.627 6.627 0 0 0 239 82.46a6.627 6.627 0 0 0 6.628-6.625V47.987c100.14 3.422 180.96 84.219 184.39 184.38h-27.848a6.63 6.63 0 0 0 0 13.258h27.848a189.926 189.926 0 0 1-31.148 98.012h.031Zm-153.25-187.03v-25.156c2.648-2.82 8.75-7.469 17.195-2.055 9.71 6.246 18.922 5.754 26.055 3.008v25.922c-3.203 2.527-10.312 6.465-18.879.942l-.004-.004a27.145 27.145 0 0 0-14.809-4.715 24.301 24.301 0 0 0-9.582 2.066l.024-.008Z"/>
    <path d="M219.75 230.88a6.627 6.627 0 0 0-6.629 6.625v15.312a6.628 6.628 0 0 0 6.629 6.629 6.628 6.628 0 0 0 6.629-6.629v-15.312c0-1.758-.7-3.441-1.941-4.684a6.616 6.616 0 0 0-4.688-1.941ZM258.26 230.88a6.627 6.627 0 0 0-6.629 6.625v15.312a6.628 6.628 0 0 0 6.629 6.629 6.627 6.627 0 0 0 6.629-6.629v-15.312c0-1.758-.7-3.441-1.942-4.684a6.622 6.622 0 0 0-4.687-1.941ZM219.75 296.52a6.63 6.63 0 0 0-6.629 6.629v15.312a6.63 6.63 0 0 0 13.258 0v-15.312a6.632 6.632 0 0 0-6.629-6.629ZM258.26 296.52a6.63 6.63 0 0 0-6.629 6.629v15.312a6.63 6.63 0 0 0 13.258 0v-15.312a6.632 6.632 0 0 0-6.629-6.629Z"/>
  </g>
</svg>
