<?xml version="1.0" standalone="no"?>
<!DOCTYPE svg PUBLIC "-//W3C//DTD SVG 20010904//EN"
 "http://www.w3.org/TR/2001/REC-SVG-20010904/DTD/svg10.dtd">
<svg version="1.0" xmlns="http://www.w3.org/2000/svg"
 width="1216.000000pt" height="1216.000000pt" viewBox="0 0 1216.000000 1216.000000"
 preserveAspectRatio="xMidYMid meet">
<metadata>
Created by potrace 1.14, written by Peter Selinger 2001-2017
</metadata>
<g transform="translate(0.000000,1216.000000) scale(0.100000,-0.100000)"
fill="#000000" stroke="none">
<path d="M5889 12066 c-2 -2 -35 -7 -74 -11 -38 -3 -81 -8 -95 -10 -14 -2 -45
-7 -70 -10 -113 -17 -406 -99 -515 -146 -16 -7 -32 -13 -35 -14 -77 -27 -397
-198 -420 -224 -3 -4 -25 -19 -50 -35 -182 -119 -400 -326 -584 -558 -10 -13
-39 -54 -65 -93 -25 -38 -48 -72 -51 -75 -13 -12 -91 -152 -137 -245 -44 -88
-107 -243 -139 -340 -14 -40 -56 -198 -64 -235 -5 -25 -11 -55 -14 -66 -4 -21
-12 -65 -21 -126 -3 -18 -8 -51 -12 -73 -4 -22 -8 -600 -10 -1285 -2 -684 -6
-1246 -8 -1248 -2 -2 -29 -6 -62 -8 -32 -3 -92 -12 -133 -21 -41 -8 -79 -16
-85 -17 -27 -5 -123 -39 -145 -51 -14 -7 -29 -14 -35 -15 -21 -4 -135 -64
-135 -72 0 -4 -6 -8 -13 -8 -23 0 -128 -82 -218 -170 -187 -183 -305 -409
-353 -675 -12 -69 -14 -439 -12 -2585 1 -1378 4 -2516 8 -2530 4 -14 9 -36 12
-50 17 -92 56 -213 94 -290 32 -65 85 -155 94 -158 4 -2 8 -8 8 -14 0 -8 27
-44 95 -127 23 -27 95 -97 125 -120 12 -9 35 -28 52 -43 17 -16 38 -28 45 -28
7 0 13 -4 13 -8 0 -18 189 -112 290 -146 212 -70 -13 -65 2900 -65 2787 0
2701 -1 2857 44 32 10 63 18 68 20 48 11 204 90 287 144 78 52 239 203 294
276 44 58 107 163 133 220 36 78 79 193 74 199 -2 2 0 13 5 23 6 10 13 36 17
58 3 22 10 63 15 90 10 56 7 5032 -3 5080 -3 17 -9 46 -13 65 -11 52 -10 50
-34 125 -13 39 -28 79 -34 90 -5 11 -11 22 -12 25 -1 3 -5 15 -9 28 -4 12 -11
22 -16 22 -5 0 -9 7 -9 17 0 30 -131 214 -209 293 -79 81 -200 180 -220 180
-6 0 -11 5 -11 10 0 6 -6 10 -12 10 -7 0 -24 9 -38 20 -14 11 -33 20 -42 20
-10 0 -18 4 -18 8 0 8 -27 20 -145 62 -81 28 -204 55 -304 65 -30 3 -56 6 -57
8 -2 2 -5 563 -7 1247 -2 685 -7 1261 -10 1280 -6 41 -15 96 -22 143 -5 32
-10 60 -20 107 -3 14 -7 34 -10 45 -51 246 -203 597 -358 829 -45 67 -84 123
-87 126 -3 3 -21 25 -40 50 -49 63 -68 85 -125 145 -27 30 -57 62 -66 72 -8
10 -46 46 -85 80 -103 92 -116 103 -154 132 -19 14 -37 29 -40 32 -3 3 -60 42
-127 86 -174 115 -391 222 -573 283 -36 12 -72 25 -80 28 -8 3 -20 6 -27 8 -6
1 -27 7 -45 13 -18 6 -45 12 -61 15 -15 3 -35 7 -45 10 -9 3 -30 8 -47 11
-119 23 -179 33 -195 33 -8 0 -31 3 -50 7 -38 7 -465 17 -471 11z m441 -309
c138 -16 388 -72 477 -108 15 -7 36 -14 45 -15 57 -11 336 -153 447 -226 52
-35 102 -67 110 -73 8 -5 20 -14 26 -20 7 -5 32 -26 56 -45 105 -83 319 -296
319 -316 0 -3 11 -15 25 -28 14 -13 25 -27 25 -30 0 -4 15 -26 34 -49 36 -44
142 -211 166 -262 8 -16 20 -37 26 -45 7 -8 13 -18 13 -22 1 -4 17 -41 35 -82
19 -41 44 -103 56 -138 12 -35 24 -70 27 -78 4 -8 7 -18 8 -22 2 -5 4 -10 5
-13 1 -3 3 -8 4 -12 1 -5 5 -17 9 -28 3 -11 8 -31 11 -45 2 -14 9 -43 15 -65
15 -58 40 -190 48 -260 4 -33 8 -610 10 -1282 l4 -1223 -451 0 -450 0 -1 1163
c0 639 -2 1178 -4 1197 -3 40 -13 118 -18 140 -6 24 -21 95 -22 100 0 3 -14
43 -29 90 -74 218 -219 431 -395 580 -30 25 -59 51 -67 58 -7 6 -17 12 -22 12
-6 0 -12 4 -14 8 -5 14 -127 88 -198 120 -141 65 -250 98 -390 119 -63 10
-326 10 -380 0 -25 -5 -58 -10 -75 -12 -120 -18 -387 -128 -479 -198 -6 -4
-36 -26 -66 -48 -92 -68 -203 -179 -265 -265 -11 -15 -25 -33 -32 -39 -21 -22
-122 -209 -144 -265 -39 -105 -84 -274 -88 -330 0 -8 -2 -31 -5 -50 -2 -19 -4
-563 -5 -1207 l-1 -1173 -450 0 -451 0 1 1235 c1 679 5 1235 8 1235 4 0 7 12
8 28 1 33 12 118 19 152 3 14 7 36 10 50 14 76 63 247 77 273 6 12 10 24 9 27
-3 8 80 213 94 230 10 13 36 65 40 80 9 34 155 251 236 351 241 298 549 527
908 674 98 40 248 89 307 99 13 3 28 7 33 10 5 3 29 8 52 11 24 3 51 8 59 10
28 8 79 15 141 20 34 2 63 6 66 9 5 5 374 -1 433 -7z m-75 -1201 c17 -4 50
-12 75 -18 111 -26 286 -104 336 -149 11 -11 23 -19 27 -19 10 0 41 -27 122
-105 145 -140 250 -331 291 -530 2 -11 7 -31 11 -45 4 -14 9 -564 10 -1222 l4
-1198 -1051 0 -1051 0 4 1208 c2 916 6 1217 15 1247 7 22 15 49 17 60 25 114
121 303 200 395 69 80 165 167 241 217 66 42 153 89 184 98 3 1 41 13 85 27
44 14 102 29 130 33 27 3 51 8 53 10 6 6 266 -2 297 -9z m2510 -3599 c17 -4
48 -12 70 -18 65 -16 213 -78 238 -99 7 -6 34 -25 62 -43 59 -38 168 -146 210
-208 16 -24 32 -46 35 -49 39 -39 115 -234 137 -350 10 -53 11 -4964 1 -5030
-8 -52 -35 -157 -45 -174 -4 -6 -8 -15 -9 -21 -2 -11 -43 -97 -65 -135 -24
-42 -110 -153 -148 -190 -110 -110 -320 -227 -436 -245 -11 -2 -38 -7 -60 -11
-51 -11 -5295 -12 -5355 -1 -174 31 -361 129 -491 257 -40 39 -139 164 -139
175 0 4 -8 19 -18 33 -10 15 -32 61 -49 102 -28 68 -36 91 -49 155 -2 11 -8
34 -12 50 -10 42 -9 4979 2 5040 4 28 10 53 13 58 2 4 7 19 9 34 14 74 100
243 169 330 49 62 143 150 203 190 78 52 138 83 146 76 3 -4 6 -2 6 4 0 8 83
41 120 48 3 1 19 4 35 8 17 4 41 9 54 12 13 2 26 7 29 10 8 8 5304 0 5337 -8z"/>
<path d="M4198 3344 c-48 -31 -72 -84 -64 -142 7 -53 28 -85 72 -111 34 -20
50 -21 375 -21 l339 0 39 26 c84 55 94 163 21 234 -38 38 -63 40 -408 39
l-337 -1 -37 -24z"/>
<path d="M7204 3345 c-81 -48 -99 -161 -37 -223 54 -54 47 -53 421 -50 l347 3
33 25 c87 65 79 194 -14 247 -38 22 -46 23 -374 23 l-335 0 -41 -25z"/>
<path d="M5125 2458 c-42 -15 -53 -26 -77 -72 -18 -35 -20 -52 -15 -131 8
-114 18 -169 53 -275 29 -86 102 -225 159 -298 35 -46 169 -176 217 -211 79
-57 215 -125 303 -152 22 -6 47 -14 55 -17 8 -3 24 -7 35 -9 11 -2 34 -6 50
-9 75 -15 291 -12 371 6 231 50 384 132 545 290 53 53 113 124 134 161 6 10
24 42 41 71 49 85 95 205 110 293 3 17 8 41 10 55 3 14 7 65 9 113 4 98 -6
126 -60 169 -59 46 -168 26 -210 -38 -19 -29 -21 -39 -29 -147 -8 -98 -65
-282 -95 -307 -3 -3 -13 -17 -21 -31 -19 -34 -57 -84 -90 -118 -67 -70 -210
-168 -224 -154 -3 4 -6 2 -6 -3 0 -6 -21 -18 -47 -27 -87 -30 -167 -44 -261
-44 -175 -1 -327 51 -465 158 -37 29 -137 131 -137 140 0 4 -6 14 -13 21 -22
22 -68 109 -89 168 -30 82 -37 117 -44 205 -7 97 -19 132 -56 166 -41 38 -95
47 -153 27z"/>
</g>
</svg>
