<svg xmlns="http://www.w3.org/2000/svg" viewBox="0 0 47 81">
  <g fill="#000" fill-rule="nonzero">
    <path d="M7.687 35.624C3.448 35.624 0 39.1 0 43.371v29.506c0 4.271 3.448 7.747 7.687 7.747h31.501c4.239 0 7.687-3.476 7.687-7.747V43.372c0-4.231-3.386-7.668-7.568-7.734v-19.7C39.307 7.151 32.157 0 23.369 0S7.431 7.15 7.431 15.938v1.875c0 .519.419.938.938.938h7.5a.937.937 0 00.938-.938v-1.875a6.57 6.57 0 016.562-6.562 6.57 6.57 0 016.562 6.562v19.688H7.687v-.002zm37.314 7.748v29.506c0 3.237-2.607 5.872-5.812 5.872H7.687c-3.204 0-5.812-2.635-5.812-5.872V43.372c0-3.237 2.607-5.872 5.812-5.872h31.501c3.205 0 5.813 2.634 5.813 5.872zM31.808 15.937c0-4.652-3.785-8.438-8.438-8.438-4.653 0-8.438 3.785-8.438 8.438v.938H9.307v-.938c0-7.755 6.308-14.062 14.062-14.062s14.062 6.308 14.062 14.062v19.688h-5.625V15.937h.002z"/>
    <ellipse cx="14.063" cy="60" rx="1.875" ry="2.812"/>
    <ellipse cx="32.813" cy="60" rx="1.875" ry="2.812"/>
    <path d="M28.995 65.624a.937.937 0 00-.938.938 4.692 4.692 0 01-4.688 4.688 4.692 4.692 0 01-4.688-4.688.937.937 0 10-1.876 0 6.57 6.57 0 006.562 6.562 6.57 6.57 0 006.562-6.562.932.932 0 00-.934-.938z"/>
  </g>
</svg>
