<svg xmlns="http://www.w3.org/2000/svg" viewBox="0 0 48 76">
  <g fill="#000" fill-rule="nonzero">
    <path d="M24.256.562C15.469.562 8.318 7.712 8.318 16.5v14.081c-4.151.103-7.5 3.521-7.5 7.729v29.506c0 4.271 3.448 7.747 7.687 7.747h31.501c4.239 0 7.687-3.476 7.687-7.747V38.31c0-4.208-3.349-7.626-7.5-7.729V16.5C40.194 7.713 33.043.562 24.256.562zm0 1.876c7.754 0 14.062 6.308 14.062 14.062v14.062h-5.625V16.5c0-4.652-3.785-8.438-8.438-8.438-4.653 0-8.438 3.785-8.438 8.438v14.062h-5.625V16.5c.002-7.755 6.31-14.062 14.064-14.062zm-6.562 28.124V16.5a6.57 6.57 0 016.562-6.562 6.57 6.57 0 016.562 6.562v14.062H17.694zm28.125 7.748v29.506c0 3.237-2.607 5.872-5.812 5.872H8.506c-3.205 0-5.812-2.635-5.812-5.872V38.31c0-3.237 2.607-5.872 5.812-5.872h31.501c3.204 0 5.812 2.634 5.812 5.872z"/>
    <path d="M16.756 54.938a4.26 4.26 0 00-.062-.687l-2.985-1.492c-.425.515-.703 1.292-.703 2.179 0 1.553.838 2.812 1.875 2.812s1.875-1.26 1.875-2.812zM31.818 54.251a4.249 4.249 0 00-.062.687c0 1.553.838 2.812 1.875 2.812s1.875-1.26 1.875-2.812c0-.887-.278-1.664-.703-2.179l-2.985 1.492zM24.256 59.625c-4.653 0-8.438 3.785-8.438 8.438a.937.937 0 101.876 0 6.57 6.57 0 016.562-6.562 6.57 6.57 0 016.562 6.562.937.937 0 101.876 0c0-4.653-3.785-8.438-8.438-8.438z"/>
  </g>
</svg>
