<svg xmlns="http://www.w3.org/2000/svg" viewBox="0 0 66 66">
  <path d="M46.117 8.282l.017-.03 2-3.465a1 1 0 011.732 1l-2 3.464-.003.005a27.863 27.863 0 019.046 8.785l3.304-1.907a1 1 0 111 1.732l-3.282 1.895A28.146 28.146 0 0161.346 32H65a1 1 0 010 2h-3.636a27.85 27.85 0 01-3.261 12.338l3.11 1.796a1 1 0 01-1 1.732l-3.11-1.796a27.85 27.85 0 01-9.055 8.994l1.818 3.149a1 1 0 01-1.732 1l-1.827-3.164A28.146 28.146 0 0134 61.21V65a1 1 0 11-2 0v-3.814a27.863 27.863 0 01-12.131-3.442l-.003.005-2 3.464a1 1 0 01-1.732-1l2-3.464.018-.03a27.84 27.84 0 01-8.726-8.98c-.053.047-.11.09-.175.127l-3.464 2a1 1 0 11-1-1.732l3.464-2c.073-.042.148-.073.224-.095a28.147 28.147 0 01-3.1-12.111A.997.997 0 015 34H1a1 1 0 010-2h4c.137 0 .268.028.387.077a27.853 27.853 0 013.297-12.08.996.996 0 01-.433-.131l-3.464-2a1 1 0 011-1.732l3.464 2a.996.996 0 01.33.309c2.3-3.71 5.339-6.701 8.813-8.896a.997.997 0 01-.26-.296l-2-3.464a1 1 0 011.732-1l2 3.464a.997.997 0 01.124.36 28.147 28.147 0 0112.04-3.37A1.002 1.002 0 0132 5V1a1 1 0 112 0v4c0 .074-.008.145-.023.215a27.84 27.84 0 0112.14 3.067zM20.369 55.73c12.146 7.012 27.597 3.111 35-8.66l-15.625-9.022a8.001 8.001 0 01-12.968-.3l-15.606 9.01a25.884 25.884 0 009.2 8.972zm5.49-19.762a7.983 7.983 0 01.582-6.755 7.983 7.983 0 015.525-3.876l-.081-18.084c-8.445.49-16.487 5.087-21.032 12.96-4.567 7.91-4.505 17.22-.656 24.798l15.661-9.043zm30.51 9.37c6.493-12.297 2.146-27.63-10-34.641a25.883 25.883 0 00-12.484-3.484l.08 18.02a8.001 8.001 0 016.779 11.083l15.626 9.022zm-26-6.929a6 6 0 106-10.392 6 6 0 00-6 10.392z" fill="#000" fill-rule="nonzero"/>
</svg>
