<svg xmlns="http://www.w3.org/2000/svg" viewBox="0 0 70 70">
  <path d="M14.063 25.312c1.034 0 1.875-1.26 1.875-2.812 0-.887-.278-1.664-.703-2.179l-2.984 1.492a4.14 4.14 0 00-.062.687c-.001 1.552.838 2.812 1.874 2.812zm20.625-2.813a4.15 4.15 0 00-.062-.687l-2.984-1.492c-.425.515-.703 1.292-.703 2.179 0 1.553.841 2.812 1.875 2.812s1.874-1.259 1.874-2.812zm0 7.5c-1.326 0-2.027.701-2.538 1.212-.459.46-.685.663-1.212.663-.527 0-.753-.203-1.212-.663-.511-.511-1.212-1.212-2.538-1.212-1.326 0-2.027.701-2.538 1.212-.459.46-.685.663-1.212.663-.527 0-.753-.203-1.212-.663-.511-.511-1.212-1.212-2.538-1.212-1.326 0-2.027.701-2.538 1.212-.459.46-.685.663-1.212.663-.527 0-.753-.203-1.212-.663-.511-.511-1.212-1.212-2.538-1.212a.937.937 0 100 1.876c.527 0 .753.203 1.212.663.511.511 1.212 1.212 2.538 1.212 1.326 0 2.027-.701 2.538-1.212.459-.46.685-.663 1.212-.663.527 0 .753.203 1.212.663.511.511 1.212 1.212 2.538 1.212 1.326 0 2.027-.701 2.538-1.212.459-.46.685-.663 1.212-.663.527 0 .753.203 1.212.663.511.511 1.212 1.212 2.538 1.212 1.326 0 2.027-.701 2.538-1.212.459-.46.685-.663 1.212-.663a.937.937 0 100-1.876zm-11.25-26.25C12.582 3.749 3.75 12.58 3.75 23.437s8.831 19.688 19.688 19.688 19.688-8.831 19.688-19.688S34.294 3.749 23.438 3.749zm0 37.5c-9.822 0-17.812-7.99-17.812-17.812 0-9.822 7.99-17.812 17.812-17.812 9.822 0 17.812 7.99 17.812 17.812 0 9.822-7.99 17.812-17.812 17.812zm27.054 1.286c-1.174-1.174-2.827-1.674-4.431-1.551l-3.732-3.731c2.844-3.88 4.547-8.646 4.547-13.815C46.876 10.514 36.362 0 23.438 0S0 10.513 0 23.437c0 12.924 10.514 23.438 23.438 23.438 5.169 0 9.936-1.703 13.815-4.547l3.686 3.687c-.015.166-.049.329-.049.5a5.59 5.59 0 001.646 3.977l17.236 17.235a5.588 5.588 0 003.977 1.648 5.596 5.596 0 003.979-1.648 5.59 5.59 0 000-7.956L50.492 42.535zM1.876 23.437c0-11.889 9.674-21.562 21.562-21.562C35.326 1.875 45 11.549 45 23.437c0 11.888-9.673 21.562-21.562 21.562-11.889 0-21.562-9.673-21.562-21.562zm36.857 17.719a23.505 23.505 0 002.424-2.424l2.816 2.816c-.52.254-1.015.567-1.436.988a5.593 5.593 0 00-1.005 1.419l-2.799-2.799zm27.669 25.245c-1.417 1.417-3.888 1.417-5.305 0L43.862 49.166a3.73 3.73 0 01-1.097-2.651 3.72 3.72 0 013.75-3.75 3.73 3.73 0 012.651 1.097l17.235 17.235a3.753 3.753 0 01.001 5.304zM23.438 9.375c1.23 0 2.45.157 3.622.471a.936.936 0 001.147-.665.937.937 0 00-.664-1.147 15.976 15.976 0 00-4.105-.533.937.937 0 100 1.874zm13.951 6.346a16.034 16.034 0 00-5.972-6.087.934.934 0 00-1.281.341.94.94 0 00.341 1.282 14.125 14.125 0 015.271 5.372.934.934 0 001.274.366.936.936 0 00.367-1.274z" fill="#000" fill-rule="nonzero"/>
</svg>
